<?xml version="1.0" encoding="UTF-8"?>
<?xml-stylesheet href="https://cdnjs.cloudflare.com/ajax/libs/font-awesome/6.6.0/css/all.min.css" type="text/css"?>
<svg aria-roledescription="er" role="graphics-document document" viewBox="0 0 1370.6553955078125 482" style="max-width: 100%;" xmlns="http://www.w3.org/2000/svg" width="100%" id="graph-div" height="100%" xmlns:xlink="http://www.w3.org/1999/xlink"><style>#graph-div{font-family:"trebuchet ms",verdana,arial,sans-serif;font-size:16px;fill:#333;}#graph-div .error-icon{fill:#552222;}#graph-div .error-text{fill:#552222;stroke:#552222;}#graph-div .edge-thickness-normal{stroke-width:1px;}#graph-div .edge-thickness-thick{stroke-width:3.5px;}#graph-div .edge-pattern-solid{stroke-dasharray:0;}#graph-div .edge-thickness-invisible{stroke-width:0;fill:none;}#graph-div .edge-pattern-dashed{stroke-dasharray:3;}#graph-div .edge-pattern-dotted{stroke-dasharray:2;}#graph-div .marker{fill:#333333;stroke:#333333;}#graph-div .marker.cross{stroke:#333333;}#graph-div svg{font-family:"trebuchet ms",verdana,arial,sans-serif;font-size:16px;}#graph-div p{margin:0;}#graph-div .entityBox{fill:#ECECFF;stroke:#9370DB;}#graph-div .attributeBoxOdd{fill:#ffffff;stroke:#9370DB;}#graph-div .attributeBoxEven{fill:#f2f2f2;stroke:#9370DB;}#graph-div .relationshipLabelBox{fill:hsl(80, 100%, 96.2745098039%);opacity:0.7;background-color:hsl(80, 100%, 96.2745098039%);}#graph-div .relationshipLabelBox rect{opacity:0.5;}#graph-div .relationshipLine{stroke:#333333;}#graph-div .entityTitleText{text-anchor:middle;font-size:18px;fill:#333;}#graph-div #MD_PARENT_START{fill:#f5f5f5!important;stroke:#333333!important;stroke-width:1;}#graph-div #MD_PARENT_END{fill:#f5f5f5!important;stroke:#333333!important;stroke-width:1;}#graph-div :root{--mermaid-font-family:"trebuchet ms",verdana,arial,sans-serif;}</style><g></g><defs><marker orient="auto" markerHeight="240" markerWidth="190" refY="7" refX="0" id="MD_PARENT_START"><path d="M 18,7 L9,13 L1,7 L9,1 Z"></path></marker></defs><defs><marker orient="auto" markerHeight="28" markerWidth="20" refY="7" refX="19" id="MD_PARENT_END"><path d="M 18,7 L9,13 L1,7 L9,1 Z"></path></marker></defs><defs><marker orient="auto" markerHeight="18" markerWidth="18" refY="9" refX="0" id="ONLY_ONE_START"><path d="M9,0 L9,18 M15,0 L15,18" fill="none" stroke="gray"></path></marker></defs><defs><marker orient="auto" markerHeight="18" markerWidth="18" refY="9" refX="18" id="ONLY_ONE_END"><path d="M3,0 L3,18 M9,0 L9,18" fill="none" stroke="gray"></path></marker></defs><defs><marker orient="auto" markerHeight="18" markerWidth="30" refY="9" refX="0" id="ZERO_OR_ONE_START"><circle r="6" cy="9" cx="21" fill="white" stroke="gray"></circle><path d="M9,0 L9,18" fill="none" stroke="gray"></path></marker></defs><defs><marker orient="auto" markerHeight="18" markerWidth="30" refY="9" refX="30" id="ZERO_OR_ONE_END"><circle r="6" cy="9" cx="9" fill="white" stroke="gray"></circle><path d="M21,0 L21,18" fill="none" stroke="gray"></path></marker></defs><defs><marker orient="auto" markerHeight="36" markerWidth="45" refY="18" refX="18" id="ONE_OR_MORE_START"><path d="M0,18 Q 18,0 36,18 Q 18,36 0,18 M42,9 L42,27" fill="none" stroke="gray"></path></marker></defs><defs><marker orient="auto" markerHeight="36" markerWidth="45" refY="18" refX="27" id="ONE_OR_MORE_END"><path d="M3,9 L3,27 M9,18 Q27,0 45,18 Q27,36 9,18" fill="none" stroke="gray"></path></marker></defs><defs><marker orient="auto" markerHeight="36" markerWidth="57" refY="18" refX="18" id="ZERO_OR_MORE_START"><circle r="6" cy="18" cx="48" fill="white" stroke="gray"></circle><path d="M0,18 Q18,0 36,18 Q18,36 0,18" fill="none" stroke="gray"></path></marker></defs><defs><marker orient="auto" markerHeight="36" markerWidth="57" refY="18" refX="39" id="ZERO_OR_MORE_END"><circle r="6" cy="18" cx="9" fill="white" stroke="gray"></circle><path d="M21,18 Q39,0 57,18 Q39,36 21,18" fill="none" stroke="gray"></path></marker></defs><path style="stroke: gray; fill: none;" marker-start="url(#ONLY_ONE_START)" marker-end="url(#ZERO_OR_MORE_END)" d="M234.153,135.952L208.442,149.96C182.73,163.968,131.306,191.984,105.594,221.325C79.883,250.667,79.883,281.333,79.883,296.667L79.883,312" class="er relationshipLine"></path><path style="stroke: gray; fill: none;" marker-start="url(#ONLY_ONE_START)" marker-end="url(#ZERO_OR_MORE_END)" d="M306.014,170L305.647,178.333C305.279,186.667,304.544,203.333,304.176,227C303.809,250.667,303.809,281.333,303.809,296.667L303.809,312" class="er relationshipLine"></path><path style="stroke: gray; fill: none;" marker-start="url(#ONLY_ONE_START)" marker-end="url(#ZERO_OR_MORE_END)" d="M384.491,135.952L410.203,149.96C435.915,163.968,487.338,191.984,513.05,214.325C538.762,236.667,538.762,253.333,538.762,261.667L538.762,270" class="er relationshipLine"></path><path style="stroke: gray; fill: none;" marker-start="url(#ONLY_ONE_START)" marker-end="url(#ZERO_OR_MORE_END)" d="M384.491,115.337L448.968,132.781C513.445,150.224,642.398,185.112,706.875,220.639C771.351,256.167,771.351,292.333,771.351,310.417L771.351,328.5" class="er relationshipLine"></path><g transform="translate(234.15345764160156,20 )" id="entity-Users-8b6eb67b-f64b-5426-9c24-135a96b8b656"><rect height="150" width="150.3377685546875" y="0" x="0" class="er entityBox"></rect><text style="dominant-baseline: middle; text-anchor: middle; font-size: 12px;" transform="translate(75.16888427734375,12)" y="0" x="0" id="text-entity-Users-8b6eb67b-f64b-5426-9c24-135a96b8b656" class="er entityLabel">Users</text><rect height="21" width="57.322052001953125" y="24" x="0" class="er attributeBoxOdd"></rect><text style="dominant-baseline: middle; font-size: 10.2px;" transform="translate(5,34.5)" y="0" x="0" id="text-entity-Users-8b6eb67b-f64b-5426-9c24-135a96b8b656-attr-1-type" class="er entityLabel">string</text><rect height="21" width="69.22073364257812" y="24" x="57.322052001953125" class="er attributeBoxOdd"></rect><text style="dominant-baseline: middle; font-size: 10.2px;" transform="translate(62.322052001953125,34.5)" y="0" x="0" id="text-entity-Users-8b6eb67b-f64b-5426-9c24-135a96b8b656-attr-1-name" class="er entityLabel">uid</text><rect height="21" width="23.79498291015625" y="24" x="126.54278564453125" class="er attributeBoxOdd"></rect><text style="dominant-baseline: middle; font-size: 10.2px;" transform="translate(131.54278564453125,34.5)" y="0" x="0" id="text-entity-Users-8b6eb67b-f64b-5426-9c24-135a96b8b656-attr-1-key" class="er entityLabel">PK</text><rect height="21" width="57.322052001953125" y="45" x="0" class="er attributeBoxEven"></rect><text style="dominant-baseline: middle; font-size: 10.2px;" transform="translate(5,55.5)" y="0" x="0" id="text-entity-Users-8b6eb67b-f64b-5426-9c24-135a96b8b656-attr-2-type" class="er entityLabel">string</text><rect height="21" width="69.22073364257812" y="45" x="57.322052001953125" class="er attributeBoxEven"></rect><text style="dominant-baseline: middle; font-size: 10.2px;" transform="translate(62.322052001953125,55.5)" y="0" x="0" id="text-entity-Users-8b6eb67b-f64b-5426-9c24-135a96b8b656-attr-2-name" class="er entityLabel">email</text><rect height="21" width="23.79498291015625" y="45" x="126.54278564453125" class="er attributeBoxEven"></rect><text style="dominant-baseline: middle; font-size: 10.2px;" transform="translate(131.54278564453125,55.5)" y="0" x="0" id="text-entity-Users-8b6eb67b-f64b-5426-9c24-135a96b8b656-attr-2-key" class="er entityLabel"></text><rect height="21" width="57.322052001953125" y="66" x="0" class="er attributeBoxOdd"></rect><text style="dominant-baseline: middle; font-size: 10.2px;" transform="translate(5,76.5)" y="0" x="0" id="text-entity-Users-8b6eb67b-f64b-5426-9c24-135a96b8b656-attr-3-type" class="er entityLabel">string</text><rect height="21" width="69.22073364257812" y="66" x="57.322052001953125" class="er attributeBoxOdd"></rect><text style="dominant-baseline: middle; font-size: 10.2px;" transform="translate(62.322052001953125,76.5)" y="0" x="0" id="text-entity-Users-8b6eb67b-f64b-5426-9c24-135a96b8b656-attr-3-name" class="er entityLabel">displayName</text><rect height="21" width="23.79498291015625" y="66" x="126.54278564453125" class="er attributeBoxOdd"></rect><text style="dominant-baseline: middle; font-size: 10.2px;" transform="translate(131.54278564453125,76.5)" y="0" x="0" id="text-entity-Users-8b6eb67b-f64b-5426-9c24-135a96b8b656-attr-3-key" class="er entityLabel"></text><rect height="21" width="57.322052001953125" y="87" x="0" class="er attributeBoxEven"></rect><text style="dominant-baseline: middle; font-size: 10.2px;" transform="translate(5,97.5)" y="0" x="0" id="text-entity-Users-8b6eb67b-f64b-5426-9c24-135a96b8b656-attr-4-type" class="er entityLabel">object</text><rect height="21" width="69.22073364257812" y="87" x="57.322052001953125" class="er attributeBoxEven"></rect><text style="dominant-baseline: middle; font-size: 10.2px;" transform="translate(62.322052001953125,97.5)" y="0" x="0" id="text-entity-Users-8b6eb67b-f64b-5426-9c24-135a96b8b656-attr-4-name" class="er entityLabel">settings</text><rect height="21" width="23.79498291015625" y="87" x="126.54278564453125" class="er attributeBoxEven"></rect><text style="dominant-baseline: middle; font-size: 10.2px;" transform="translate(131.54278564453125,97.5)" y="0" x="0" id="text-entity-Users-8b6eb67b-f64b-5426-9c24-135a96b8b656-attr-4-key" class="er entityLabel"></text><rect height="21" width="57.322052001953125" y="108" x="0" class="er attributeBoxOdd"></rect><text style="dominant-baseline: middle; font-size: 10.2px;" transform="translate(5,118.5)" y="0" x="0" id="text-entity-Users-8b6eb67b-f64b-5426-9c24-135a96b8b656-attr-5-type" class="er entityLabel">timestamp</text><rect height="21" width="69.22073364257812" y="108" x="57.322052001953125" class="er attributeBoxOdd"></rect><text style="dominant-baseline: middle; font-size: 10.2px;" transform="translate(62.322052001953125,118.5)" y="0" x="0" id="text-entity-Users-8b6eb67b-f64b-5426-9c24-135a96b8b656-attr-5-name" class="er entityLabel">created</text><rect height="21" width="23.79498291015625" y="108" x="126.54278564453125" class="er attributeBoxOdd"></rect><text style="dominant-baseline: middle; font-size: 10.2px;" transform="translate(131.54278564453125,118.5)" y="0" x="0" id="text-entity-Users-8b6eb67b-f64b-5426-9c24-135a96b8b656-attr-5-key" class="er entityLabel"></text><rect height="21" width="57.322052001953125" y="129" x="0" class="er attributeBoxEven"></rect><text style="dominant-baseline: middle; font-size: 10.2px;" transform="translate(5,139.5)" y="0" x="0" id="text-entity-Users-8b6eb67b-f64b-5426-9c24-135a96b8b656-attr-6-type" class="er entityLabel">timestamp</text><rect height="21" width="69.22073364257812" y="129" x="57.322052001953125" class="er attributeBoxEven"></rect><text style="dominant-baseline: middle; font-size: 10.2px;" transform="translate(62.322052001953125,139.5)" y="0" x="0" id="text-entity-Users-8b6eb67b-f64b-5426-9c24-135a96b8b656-attr-6-name" class="er entityLabel">lastLogin</text><rect height="21" width="23.79498291015625" y="129" x="126.54278564453125" class="er attributeBoxEven"></rect><text style="dominant-baseline: middle; font-size: 10.2px;" transform="translate(131.54278564453125,139.5)" y="0" x="0" id="text-entity-Users-8b6eb67b-f64b-5426-9c24-135a96b8b656-attr-6-key" class="er entityLabel"></text></g><g transform="translate(20,312 )" id="entity-Workouts-4db62a1b-0a2f-5b78-a944-344fa41dbfdb"><rect height="108" width="119.76531982421875" y="0" x="0" class="er entityBox"></rect><text style="dominant-baseline: middle; text-anchor: middle; font-size: 12px;" transform="translate(59.882659912109375,12)" y="0" x="0" id="text-entity-Workouts-4db62a1b-0a2f-5b78-a944-344fa41dbfdb" class="er entityLabel">Workouts</text><rect height="21" width="57.322052001953125" y="24" x="0" class="er attributeBoxOdd"></rect><text style="dominant-baseline: middle; font-size: 10.2px;" transform="translate(5,34.5)" y="0" x="0" id="text-entity-Workouts-4db62a1b-0a2f-5b78-a944-344fa41dbfdb-attr-1-type" class="er entityLabel">string</text><rect height="21" width="38.648284912109375" y="24" x="57.322052001953125" class="er attributeBoxOdd"></rect><text style="dominant-baseline: middle; font-size: 10.2px;" transform="translate(62.322052001953125,34.5)" y="0" x="0" id="text-entity-Workouts-4db62a1b-0a2f-5b78-a944-344fa41dbfdb-attr-1-name" class="er entityLabel">id</text><rect height="21" width="23.79498291015625" y="24" x="95.9703369140625" class="er attributeBoxOdd"></rect><text style="dominant-baseline: middle; font-size: 10.2px;" transform="translate(100.9703369140625,34.5)" y="0" x="0" id="text-entity-Workouts-4db62a1b-0a2f-5b78-a944-344fa41dbfdb-attr-1-key" class="er entityLabel">PK</text><rect height="21" width="57.322052001953125" y="45" x="0" class="er attributeBoxEven"></rect><text style="dominant-baseline: middle; font-size: 10.2px;" transform="translate(5,55.5)" y="0" x="0" id="text-entity-Workouts-4db62a1b-0a2f-5b78-a944-344fa41dbfdb-attr-2-type" class="er entityLabel">string</text><rect height="21" width="38.648284912109375" y="45" x="57.322052001953125" class="er attributeBoxEven"></rect><text style="dominant-baseline: middle; font-size: 10.2px;" transform="translate(62.322052001953125,55.5)" y="0" x="0" id="text-entity-Workouts-4db62a1b-0a2f-5b78-a944-344fa41dbfdb-attr-2-name" class="er entityLabel">userId</text><rect height="21" width="23.79498291015625" y="45" x="95.9703369140625" class="er attributeBoxEven"></rect><text style="dominant-baseline: middle; font-size: 10.2px;" transform="translate(100.9703369140625,55.5)" y="0" x="0" id="text-entity-Workouts-4db62a1b-0a2f-5b78-a944-344fa41dbfdb-attr-2-key" class="er entityLabel">FK</text><rect height="21" width="57.322052001953125" y="66" x="0" class="er attributeBoxOdd"></rect><text style="dominant-baseline: middle; font-size: 10.2px;" transform="translate(5,76.5)" y="0" x="0" id="text-entity-Workouts-4db62a1b-0a2f-5b78-a944-344fa41dbfdb-attr-3-type" class="er entityLabel">timestamp</text><rect height="21" width="38.648284912109375" y="66" x="57.322052001953125" class="er attributeBoxOdd"></rect><text style="dominant-baseline: middle; font-size: 10.2px;" transform="translate(62.322052001953125,76.5)" y="0" x="0" id="text-entity-Workouts-4db62a1b-0a2f-5b78-a944-344fa41dbfdb-attr-3-name" class="er entityLabel">date</text><rect height="21" width="23.79498291015625" y="66" x="95.9703369140625" class="er attributeBoxOdd"></rect><text style="dominant-baseline: middle; font-size: 10.2px;" transform="translate(100.9703369140625,76.5)" y="0" x="0" id="text-entity-Workouts-4db62a1b-0a2f-5b78-a944-344fa41dbfdb-attr-3-key" class="er entityLabel"></text><rect height="21" width="57.322052001953125" y="87" x="0" class="er attributeBoxEven"></rect><text style="dominant-baseline: middle; font-size: 10.2px;" transform="translate(5,97.5)" y="0" x="0" id="text-entity-Workouts-4db62a1b-0a2f-5b78-a944-344fa41dbfdb-attr-4-type" class="er entityLabel">string</text><rect height="21" width="38.648284912109375" y="87" x="57.322052001953125" class="er attributeBoxEven"></rect><text style="dominant-baseline: middle; font-size: 10.2px;" transform="translate(62.322052001953125,97.5)" y="0" x="0" id="text-entity-Workouts-4db62a1b-0a2f-5b78-a944-344fa41dbfdb-attr-4-name" class="er entityLabel">notes</text><rect height="21" width="23.79498291015625" y="87" x="95.9703369140625" class="er attributeBoxEven"></rect><text style="dominant-baseline: middle; font-size: 10.2px;" transform="translate(100.9703369140625,97.5)" y="0" x="0" id="text-entity-Workouts-4db62a1b-0a2f-5b78-a944-344fa41dbfdb-attr-4-key" class="er entityLabel"></text></g><g transform="translate(239.76531982421875,312 )" id="entity-Nutrition-59d4390d-0611-56f6-96ce-c99032389f41"><rect height="108" width="128.08697509765625" y="0" x="0" class="er entityBox"></rect><text style="dominant-baseline: middle; text-anchor: middle; font-size: 12px;" transform="translate(64.04348754882812,12)" y="0" x="0" id="text-entity-Nutrition-59d4390d-0611-56f6-96ce-c99032389f41" class="er entityLabel">Nutrition</text><rect height="21" width="57.322052001953125" y="24" x="0" class="er attributeBoxOdd"></rect><text style="dominant-baseline: middle; font-size: 10.2px;" transform="translate(5,34.5)" y="0" x="0" id="text-entity-Nutrition-59d4390d-0611-56f6-96ce-c99032389f41-attr-1-type" class="er entityLabel">string</text><rect height="21" width="46.969940185546875" y="24" x="57.322052001953125" class="er attributeBoxOdd"></rect><text style="dominant-baseline: middle; font-size: 10.2px;" transform="translate(62.322052001953125,34.5)" y="0" x="0" id="text-entity-Nutrition-59d4390d-0611-56f6-96ce-c99032389f41-attr-1-name" class="er entityLabel">id</text><rect height="21" width="23.79498291015625" y="24" x="104.2919921875" class="er attributeBoxOdd"></rect><text style="dominant-baseline: middle; font-size: 10.2px;" transform="translate(109.2919921875,34.5)" y="0" x="0" id="text-entity-Nutrition-59d4390d-0611-56f6-96ce-c99032389f41-attr-1-key" class="er entityLabel">PK</text><rect height="21" width="57.322052001953125" y="45" x="0" class="er attributeBoxEven"></rect><text style="dominant-baseline: middle; font-size: 10.2px;" transform="translate(5,55.5)" y="0" x="0" id="text-entity-Nutrition-59d4390d-0611-56f6-96ce-c99032389f41-attr-2-type" class="er entityLabel">string</text><rect height="21" width="46.969940185546875" y="45" x="57.322052001953125" class="er attributeBoxEven"></rect><text style="dominant-baseline: middle; font-size: 10.2px;" transform="translate(62.322052001953125,55.5)" y="0" x="0" id="text-entity-Nutrition-59d4390d-0611-56f6-96ce-c99032389f41-attr-2-name" class="er entityLabel">userId</text><rect height="21" width="23.79498291015625" y="45" x="104.2919921875" class="er attributeBoxEven"></rect><text style="dominant-baseline: middle; font-size: 10.2px;" transform="translate(109.2919921875,55.5)" y="0" x="0" id="text-entity-Nutrition-59d4390d-0611-56f6-96ce-c99032389f41-attr-2-key" class="er entityLabel">FK</text><rect height="21" width="57.322052001953125" y="66" x="0" class="er attributeBoxOdd"></rect><text style="dominant-baseline: middle; font-size: 10.2px;" transform="translate(5,76.5)" y="0" x="0" id="text-entity-Nutrition-59d4390d-0611-56f6-96ce-c99032389f41-attr-3-type" class="er entityLabel">timestamp</text><rect height="21" width="46.969940185546875" y="66" x="57.322052001953125" class="er attributeBoxOdd"></rect><text style="dominant-baseline: middle; font-size: 10.2px;" transform="translate(62.322052001953125,76.5)" y="0" x="0" id="text-entity-Nutrition-59d4390d-0611-56f6-96ce-c99032389f41-attr-3-name" class="er entityLabel">date</text><rect height="21" width="23.79498291015625" y="66" x="104.2919921875" class="er attributeBoxOdd"></rect><text style="dominant-baseline: middle; font-size: 10.2px;" transform="translate(109.2919921875,76.5)" y="0" x="0" id="text-entity-Nutrition-59d4390d-0611-56f6-96ce-c99032389f41-attr-3-key" class="er entityLabel"></text><rect height="21" width="57.322052001953125" y="87" x="0" class="er attributeBoxEven"></rect><text style="dominant-baseline: middle; font-size: 10.2px;" transform="translate(5,97.5)" y="0" x="0" id="text-entity-Nutrition-59d4390d-0611-56f6-96ce-c99032389f41-attr-4-type" class="er entityLabel">string</text><rect height="21" width="46.969940185546875" y="87" x="57.322052001953125" class="er attributeBoxEven"></rect><text style="dominant-baseline: middle; font-size: 10.2px;" transform="translate(62.322052001953125,97.5)" y="0" x="0" id="text-entity-Nutrition-59d4390d-0611-56f6-96ce-c99032389f41-attr-4-name" class="er entityLabel">timeSlot</text><rect height="21" width="23.79498291015625" y="87" x="104.2919921875" class="er attributeBoxEven"></rect><text style="dominant-baseline: middle; font-size: 10.2px;" transform="translate(109.2919921875,97.5)" y="0" x="0" id="text-entity-Nutrition-59d4390d-0611-56f6-96ce-c99032389f41-attr-4-key" class="er entityLabel"></text></g><g transform="translate(467.852294921875,270 )" id="entity-UserFoods-6463e458-7873-503b-9927-04d688bbb9ce"><rect height="192" width="141.8194580078125" y="0" x="0" class="er entityBox"></rect><text style="dominant-baseline: middle; text-anchor: middle; font-size: 12px;" transform="translate(70.90972900390625,12)" y="0" x="0" id="text-entity-UserFoods-6463e458-7873-503b-9927-04d688bbb9ce" class="er entityLabel">UserFoods</text><rect height="21" width="45.14947509765625" y="24" x="0" class="er attributeBoxOdd"></rect><text style="dominant-baseline: middle; font-size: 10.2px;" transform="translate(5,34.5)" y="0" x="0" id="text-entity-UserFoods-6463e458-7873-503b-9927-04d688bbb9ce-attr-1-type" class="er entityLabel">string</text><rect height="21" width="72.875" y="24" x="45.14947509765625" class="er attributeBoxOdd"></rect><text style="dominant-baseline: middle; font-size: 10.2px;" transform="translate(50.14947509765625,34.5)" y="0" x="0" id="text-entity-UserFoods-6463e458-7873-503b-9927-04d688bbb9ce-attr-1-name" class="er entityLabel">id</text><rect height="21" width="23.79498291015625" y="24" x="118.02447509765625" class="er attributeBoxOdd"></rect><text style="dominant-baseline: middle; font-size: 10.2px;" transform="translate(123.02447509765625,34.5)" y="0" x="0" id="text-entity-UserFoods-6463e458-7873-503b-9927-04d688bbb9ce-attr-1-key" class="er entityLabel">PK</text><rect height="21" width="45.14947509765625" y="45" x="0" class="er attributeBoxEven"></rect><text style="dominant-baseline: middle; font-size: 10.2px;" transform="translate(5,55.5)" y="0" x="0" id="text-entity-UserFoods-6463e458-7873-503b-9927-04d688bbb9ce-attr-2-type" class="er entityLabel">string</text><rect height="21" width="72.875" y="45" x="45.14947509765625" class="er attributeBoxEven"></rect><text style="dominant-baseline: middle; font-size: 10.2px;" transform="translate(50.14947509765625,55.5)" y="0" x="0" id="text-entity-UserFoods-6463e458-7873-503b-9927-04d688bbb9ce-attr-2-name" class="er entityLabel">userId</text><rect height="21" width="23.79498291015625" y="45" x="118.02447509765625" class="er attributeBoxEven"></rect><text style="dominant-baseline: middle; font-size: 10.2px;" transform="translate(123.02447509765625,55.5)" y="0" x="0" id="text-entity-UserFoods-6463e458-7873-503b-9927-04d688bbb9ce-attr-2-key" class="er entityLabel">FK</text><rect height="21" width="45.14947509765625" y="66" x="0" class="er attributeBoxOdd"></rect><text style="dominant-baseline: middle; font-size: 10.2px;" transform="translate(5,76.5)" y="0" x="0" id="text-entity-UserFoods-6463e458-7873-503b-9927-04d688bbb9ce-attr-3-type" class="er entityLabel">string</text><rect height="21" width="72.875" y="66" x="45.14947509765625" class="er attributeBoxOdd"></rect><text style="dominant-baseline: middle; font-size: 10.2px;" transform="translate(50.14947509765625,76.5)" y="0" x="0" id="text-entity-UserFoods-6463e458-7873-503b-9927-04d688bbb9ce-attr-3-name" class="er entityLabel">name</text><rect height="21" width="23.79498291015625" y="66" x="118.02447509765625" class="er attributeBoxOdd"></rect><text style="dominant-baseline: middle; font-size: 10.2px;" transform="translate(123.02447509765625,76.5)" y="0" x="0" id="text-entity-UserFoods-6463e458-7873-503b-9927-04d688bbb9ce-attr-3-key" class="er entityLabel"></text><rect height="21" width="45.14947509765625" y="87" x="0" class="er attributeBoxEven"></rect><text style="dominant-baseline: middle; font-size: 10.2px;" transform="translate(5,97.5)" y="0" x="0" id="text-entity-UserFoods-6463e458-7873-503b-9927-04d688bbb9ce-attr-4-type" class="er entityLabel">number</text><rect height="21" width="72.875" y="87" x="45.14947509765625" class="er attributeBoxEven"></rect><text style="dominant-baseline: middle; font-size: 10.2px;" transform="translate(50.14947509765625,97.5)" y="0" x="0" id="text-entity-UserFoods-6463e458-7873-503b-9927-04d688bbb9ce-attr-4-name" class="er entityLabel">defaultPortion</text><rect height="21" width="23.79498291015625" y="87" x="118.02447509765625" class="er attributeBoxEven"></rect><text style="dominant-baseline: middle; font-size: 10.2px;" transform="translate(123.02447509765625,97.5)" y="0" x="0" id="text-entity-UserFoods-6463e458-7873-503b-9927-04d688bbb9ce-attr-4-key" class="er entityLabel"></text><rect height="21" width="45.14947509765625" y="108" x="0" class="er attributeBoxOdd"></rect><text style="dominant-baseline: middle; font-size: 10.2px;" transform="translate(5,118.5)" y="0" x="0" id="text-entity-UserFoods-6463e458-7873-503b-9927-04d688bbb9ce-attr-5-type" class="er entityLabel">number</text><rect height="21" width="72.875" y="108" x="45.14947509765625" class="er attributeBoxOdd"></rect><text style="dominant-baseline: middle; font-size: 10.2px;" transform="translate(50.14947509765625,118.5)" y="0" x="0" id="text-entity-UserFoods-6463e458-7873-503b-9927-04d688bbb9ce-attr-5-name" class="er entityLabel">protein</text><rect height="21" width="23.79498291015625" y="108" x="118.02447509765625" class="er attributeBoxOdd"></rect><text style="dominant-baseline: middle; font-size: 10.2px;" transform="translate(123.02447509765625,118.5)" y="0" x="0" id="text-entity-UserFoods-6463e458-7873-503b-9927-04d688bbb9ce-attr-5-key" class="er entityLabel"></text><rect height="21" width="45.14947509765625" y="129" x="0" class="er attributeBoxEven"></rect><text style="dominant-baseline: middle; font-size: 10.2px;" transform="translate(5,139.5)" y="0" x="0" id="text-entity-UserFoods-6463e458-7873-503b-9927-04d688bbb9ce-attr-6-type" class="er entityLabel">number</text><rect height="21" width="72.875" y="129" x="45.14947509765625" class="er attributeBoxEven"></rect><text style="dominant-baseline: middle; font-size: 10.2px;" transform="translate(50.14947509765625,139.5)" y="0" x="0" id="text-entity-UserFoods-6463e458-7873-503b-9927-04d688bbb9ce-attr-6-name" class="er entityLabel">carbs</text><rect height="21" width="23.79498291015625" y="129" x="118.02447509765625" class="er attributeBoxEven"></rect><text style="dominant-baseline: middle; font-size: 10.2px;" transform="translate(123.02447509765625,139.5)" y="0" x="0" id="text-entity-UserFoods-6463e458-7873-503b-9927-04d688bbb9ce-attr-6-key" class="er entityLabel"></text><rect height="21" width="45.14947509765625" y="150" x="0" class="er attributeBoxOdd"></rect><text style="dominant-baseline: middle; font-size: 10.2px;" transform="translate(5,160.5)" y="0" x="0" id="text-entity-UserFoods-6463e458-7873-503b-9927-04d688bbb9ce-attr-7-type" class="er entityLabel">number</text><rect height="21" width="72.875" y="150" x="45.14947509765625" class="er attributeBoxOdd"></rect><text style="dominant-baseline: middle; font-size: 10.2px;" transform="translate(50.14947509765625,160.5)" y="0" x="0" id="text-entity-UserFoods-6463e458-7873-503b-9927-04d688bbb9ce-attr-7-name" class="er entityLabel">fat</text><rect height="21" width="23.79498291015625" y="150" x="118.02447509765625" class="er attributeBoxOdd"></rect><text style="dominant-baseline: middle; font-size: 10.2px;" transform="translate(123.02447509765625,160.5)" y="0" x="0" id="text-entity-UserFoods-6463e458-7873-503b-9927-04d688bbb9ce-attr-7-key" class="er entityLabel"></text><rect height="21" width="45.14947509765625" y="171" x="0" class="er attributeBoxEven"></rect><text style="dominant-baseline: middle; font-size: 10.2px;" transform="translate(5,181.5)" y="0" x="0" id="text-entity-UserFoods-6463e458-7873-503b-9927-04d688bbb9ce-attr-8-type" class="er entityLabel">number</text><rect height="21" width="72.875" y="171" x="45.14947509765625" class="er attributeBoxEven"></rect><text style="dominant-baseline: middle; font-size: 10.2px;" transform="translate(50.14947509765625,181.5)" y="0" x="0" id="text-entity-UserFoods-6463e458-7873-503b-9927-04d688bbb9ce-attr-8-name" class="er entityLabel">calories</text><rect height="21" width="23.79498291015625" y="171" x="118.02447509765625" class="er attributeBoxEven"></rect><text style="dominant-baseline: middle; font-size: 10.2px;" transform="translate(123.02447509765625,181.5)" y="0" x="0" id="text-entity-UserFoods-6463e458-7873-503b-9927-04d688bbb9ce-attr-8-key" class="er entityLabel"></text></g><g transform="translate(709.6717529296875,328.5 )" id="entity-CustomExercises-f666ac0a-ccfc-5398-8dbe-a584e0efe535"><rect height="75" width="123.359375" y="0" x="0" class="er entityBox"></rect><text style="dominant-baseline: middle; text-anchor: middle; font-size: 12px;" transform="translate(61.6796875,37.5)" y="0" x="0" id="text-entity-CustomExercises-f666ac0a-ccfc-5398-8dbe-a584e0efe535" class="er entityLabel">CustomExercises</text></g><g transform="translate(484.49122619628906,51.5 )" id="entity-WorkoutExercises-240c1169-e696-571e-9bc1-9b56ae8a1f4a"><rect height="87" width="126.484375" y="0" x="0" class="er entityBox"></rect><text style="dominant-baseline: middle; text-anchor: middle; font-size: 12px;" transform="translate(63.2421875,12)" y="0" x="0" id="text-entity-WorkoutExercises-240c1169-e696-571e-9bc1-9b56ae8a1f4a" class="er entityLabel">WorkoutExercises</text><rect height="21" width="38.996053059895836" y="24" x="0" class="er attributeBoxOdd"></rect><text style="dominant-baseline: middle; font-size: 10.2px;" transform="translate(5,34.5)" y="0" x="0" id="text-entity-WorkoutExercises-240c1169-e696-571e-9bc1-9b56ae8a1f4a-attr-1-type" class="er entityLabel">string</text><rect height="21" width="60.515157063802086" y="24" x="38.996053059895836" class="er attributeBoxOdd"></rect><text style="dominant-baseline: middle; font-size: 10.2px;" transform="translate(43.996053059895836,34.5)" y="0" x="0" id="text-entity-WorkoutExercises-240c1169-e696-571e-9bc1-9b56ae8a1f4a-attr-1-name" class="er entityLabel">workoutId</text><rect height="21" width="26.973164876302082" y="24" x="99.51121012369792" class="er attributeBoxOdd"></rect><text style="dominant-baseline: middle; font-size: 10.2px;" transform="translate(104.51121012369792,34.5)" y="0" x="0" id="text-entity-WorkoutExercises-240c1169-e696-571e-9bc1-9b56ae8a1f4a-attr-1-key" class="er entityLabel">FK</text><rect height="21" width="38.996053059895836" y="45" x="0" class="er attributeBoxEven"></rect><text style="dominant-baseline: middle; font-size: 10.2px;" transform="translate(5,55.5)" y="0" x="0" id="text-entity-WorkoutExercises-240c1169-e696-571e-9bc1-9b56ae8a1f4a-attr-2-type" class="er entityLabel">string</text><rect height="21" width="60.515157063802086" y="45" x="38.996053059895836" class="er attributeBoxEven"></rect><text style="dominant-baseline: middle; font-size: 10.2px;" transform="translate(43.996053059895836,55.5)" y="0" x="0" id="text-entity-WorkoutExercises-240c1169-e696-571e-9bc1-9b56ae8a1f4a-attr-2-name" class="er entityLabel">exerciseId</text><rect height="21" width="26.973164876302082" y="45" x="99.51121012369792" class="er attributeBoxEven"></rect><text style="dominant-baseline: middle; font-size: 10.2px;" transform="translate(104.51121012369792,55.5)" y="0" x="0" id="text-entity-WorkoutExercises-240c1169-e696-571e-9bc1-9b56ae8a1f4a-attr-2-key" class="er entityLabel">FK</text><rect height="21" width="38.996053059895836" y="66" x="0" class="er attributeBoxOdd"></rect><text style="dominant-baseline: middle; font-size: 10.2px;" transform="translate(5,76.5)" y="0" x="0" id="text-entity-WorkoutExercises-240c1169-e696-571e-9bc1-9b56ae8a1f4a-attr-3-type" class="er entityLabel">int</text><rect height="21" width="60.515157063802086" y="66" x="38.996053059895836" class="er attributeBoxOdd"></rect><text style="dominant-baseline: middle; font-size: 10.2px;" transform="translate(43.996053059895836,76.5)" y="0" x="0" id="text-entity-WorkoutExercises-240c1169-e696-571e-9bc1-9b56ae8a1f4a-attr-3-name" class="er entityLabel">order</text><rect height="21" width="26.973164876302082" y="66" x="99.51121012369792" class="er attributeBoxOdd"></rect><text style="dominant-baseline: middle; font-size: 10.2px;" transform="translate(104.51121012369792,76.5)" y="0" x="0" id="text-entity-WorkoutExercises-240c1169-e696-571e-9bc1-9b56ae8a1f4a-attr-3-key" class="er entityLabel"></text></g><g transform="translate(710.9756011962891,30.5 )" id="entity-ExerciseSets-b7fd4862-5d3c-5c74-acae-9b443fdad6a6"><rect height="129" width="125.1373291015625" y="0" x="0" class="er entityBox"></rect><text style="dominant-baseline: middle; text-anchor: middle; font-size: 12px;" transform="translate(62.56866455078125,12)" y="0" x="0" id="text-entity-ExerciseSets-b7fd4862-5d3c-5c74-acae-9b443fdad6a6" class="er entityLabel">ExerciseSets</text><rect height="21" width="45.14947509765625" y="24" x="0" class="er attributeBoxOdd"></rect><text style="dominant-baseline: middle; font-size: 10.2px;" transform="translate(5,34.5)" y="0" x="0" id="text-entity-ExerciseSets-b7fd4862-5d3c-5c74-acae-9b443fdad6a6-attr-1-type" class="er entityLabel">string</text><rect height="21" width="56.764923095703125" y="24" x="45.14947509765625" class="er attributeBoxOdd"></rect><text style="dominant-baseline: middle; font-size: 10.2px;" transform="translate(50.14947509765625,34.5)" y="0" x="0" id="text-entity-ExerciseSets-b7fd4862-5d3c-5c74-acae-9b443fdad6a6-attr-1-name" class="er entityLabel">workoutId</text><rect height="21" width="23.222930908203125" y="24" x="101.91439819335938" class="er attributeBoxOdd"></rect><text style="dominant-baseline: middle; font-size: 10.2px;" transform="translate(106.91439819335938,34.5)" y="0" x="0" id="text-entity-ExerciseSets-b7fd4862-5d3c-5c74-acae-9b443fdad6a6-attr-1-key" class="er entityLabel">FK</text><rect height="21" width="45.14947509765625" y="45" x="0" class="er attributeBoxEven"></rect><text style="dominant-baseline: middle; font-size: 10.2px;" transform="translate(5,55.5)" y="0" x="0" id="text-entity-ExerciseSets-b7fd4862-5d3c-5c74-acae-9b443fdad6a6-attr-2-type" class="er entityLabel">string</text><rect height="21" width="56.764923095703125" y="45" x="45.14947509765625" class="er attributeBoxEven"></rect><text style="dominant-baseline: middle; font-size: 10.2px;" transform="translate(50.14947509765625,55.5)" y="0" x="0" id="text-entity-ExerciseSets-b7fd4862-5d3c-5c74-acae-9b443fdad6a6-attr-2-name" class="er entityLabel">exerciseId</text><rect height="21" width="23.222930908203125" y="45" x="101.91439819335938" class="er attributeBoxEven"></rect><text style="dominant-baseline: middle; font-size: 10.2px;" transform="translate(106.91439819335938,55.5)" y="0" x="0" id="text-entity-ExerciseSets-b7fd4862-5d3c-5c74-acae-9b443fdad6a6-attr-2-key" class="er entityLabel">FK</text><rect height="21" width="45.14947509765625" y="66" x="0" class="er attributeBoxOdd"></rect><text style="dominant-baseline: middle; font-size: 10.2px;" transform="translate(5,76.5)" y="0" x="0" id="text-entity-ExerciseSets-b7fd4862-5d3c-5c74-acae-9b443fdad6a6-attr-3-type" class="er entityLabel">number</text><rect height="21" width="56.764923095703125" y="66" x="45.14947509765625" class="er attributeBoxOdd"></rect><text style="dominant-baseline: middle; font-size: 10.2px;" transform="translate(50.14947509765625,76.5)" y="0" x="0" id="text-entity-ExerciseSets-b7fd4862-5d3c-5c74-acae-9b443fdad6a6-attr-3-name" class="er entityLabel">weight</text><rect height="21" width="23.222930908203125" y="66" x="101.91439819335938" class="er attributeBoxOdd"></rect><text style="dominant-baseline: middle; font-size: 10.2px;" transform="translate(106.91439819335938,76.5)" y="0" x="0" id="text-entity-ExerciseSets-b7fd4862-5d3c-5c74-acae-9b443fdad6a6-attr-3-key" class="er entityLabel"></text><rect height="21" width="45.14947509765625" y="87" x="0" class="er attributeBoxEven"></rect><text style="dominant-baseline: middle; font-size: 10.2px;" transform="translate(5,97.5)" y="0" x="0" id="text-entity-ExerciseSets-b7fd4862-5d3c-5c74-acae-9b443fdad6a6-attr-4-type" class="er entityLabel">number</text><rect height="21" width="56.764923095703125" y="87" x="45.14947509765625" class="er attributeBoxEven"></rect><text style="dominant-baseline: middle; font-size: 10.2px;" transform="translate(50.14947509765625,97.5)" y="0" x="0" id="text-entity-ExerciseSets-b7fd4862-5d3c-5c74-acae-9b443fdad6a6-attr-4-name" class="er entityLabel">reps</text><rect height="21" width="23.222930908203125" y="87" x="101.91439819335938" class="er attributeBoxEven"></rect><text style="dominant-baseline: middle; font-size: 10.2px;" transform="translate(106.91439819335938,97.5)" y="0" x="0" id="text-entity-ExerciseSets-b7fd4862-5d3c-5c74-acae-9b443fdad6a6-attr-4-key" class="er entityLabel"></text><rect height="21" width="45.14947509765625" y="108" x="0" class="er attributeBoxOdd"></rect><text style="dominant-baseline: middle; font-size: 10.2px;" transform="translate(5,118.5)" y="0" x="0" id="text-entity-ExerciseSets-b7fd4862-5d3c-5c74-acae-9b443fdad6a6-attr-5-type" class="er entityLabel">int</text><rect height="21" width="56.764923095703125" y="108" x="45.14947509765625" class="er attributeBoxOdd"></rect><text style="dominant-baseline: middle; font-size: 10.2px;" transform="translate(50.14947509765625,118.5)" y="0" x="0" id="text-entity-ExerciseSets-b7fd4862-5d3c-5c74-acae-9b443fdad6a6-attr-5-name" class="er entityLabel">setOrder</text><rect height="21" width="23.222930908203125" y="108" x="101.91439819335938" class="er attributeBoxOdd"></rect><text style="dominant-baseline: middle; font-size: 10.2px;" transform="translate(106.91439819335938,118.5)" y="0" x="0" id="text-entity-ExerciseSets-b7fd4862-5d3c-5c74-acae-9b443fdad6a6-attr-5-key" class="er entityLabel"></text></g><g transform="translate(936.1129302978516,20 )" id="entity-Exercises-082f1a58-a9e5-5e90-ac04-71d5cc62da9c"><rect height="150" width="205.01373291015625" y="0" x="0" class="er entityBox"></rect><text style="dominant-baseline: middle; text-anchor: middle; font-size: 12px;" transform="translate(102.50686645507812,12)" y="0" x="0" id="text-entity-Exercises-082f1a58-a9e5-5e90-ac04-71d5cc62da9c" class="er entityLabel">Exercises</text><rect height="21" width="46.265625" y="24" x="0" class="er attributeBoxOdd"></rect><text style="dominant-baseline: middle; font-size: 10.2px;" transform="translate(5,34.5)" y="0" x="0" id="text-entity-Exercises-082f1a58-a9e5-5e90-ac04-71d5cc62da9c-attr-1-type" class="er entityLabel">string</text><rect height="21" width="59.28125" y="24" x="46.265625" class="er attributeBoxOdd"></rect><text style="dominant-baseline: middle; font-size: 10.2px;" transform="translate(51.265625,34.5)" y="0" x="0" id="text-entity-Exercises-082f1a58-a9e5-5e90-ac04-71d5cc62da9c-attr-1-name" class="er entityLabel">id</text><rect height="21" width="23.79498291015625" y="24" x="105.546875" class="er attributeBoxOdd"></rect><text style="dominant-baseline: middle; font-size: 10.2px;" transform="translate(110.546875,34.5)" y="0" x="0" id="text-entity-Exercises-082f1a58-a9e5-5e90-ac04-71d5cc62da9c-attr-1-key" class="er entityLabel">PK</text><rect height="21" width="75.671875" y="24" x="129.34185791015625" class="er attributeBoxOdd"></rect><text style="dominant-baseline: middle; font-size: 10.2px;" transform="translate(134.34185791015625,34.5)" y="0" x="0" id="text-entity-Exercises-082f1a58-a9e5-5e90-ac04-71d5cc62da9c-attr-1-comment" class="er entityLabel"></text><rect height="21" width="46.265625" y="45" x="0" class="er attributeBoxEven"></rect><text style="dominant-baseline: middle; font-size: 10.2px;" transform="translate(5,55.5)" y="0" x="0" id="text-entity-Exercises-082f1a58-a9e5-5e90-ac04-71d5cc62da9c-attr-2-type" class="er entityLabel">string</text><rect height="21" width="59.28125" y="45" x="46.265625" class="er attributeBoxEven"></rect><text style="dominant-baseline: middle; font-size: 10.2px;" transform="translate(51.265625,55.5)" y="0" x="0" id="text-entity-Exercises-082f1a58-a9e5-5e90-ac04-71d5cc62da9c-attr-2-name" class="er entityLabel">name</text><rect height="21" width="23.79498291015625" y="45" x="105.546875" class="er attributeBoxEven"></rect><text style="dominant-baseline: middle; font-size: 10.2px;" transform="translate(110.546875,55.5)" y="0" x="0" id="text-entity-Exercises-082f1a58-a9e5-5e90-ac04-71d5cc62da9c-attr-2-key" class="er entityLabel"></text><rect height="21" width="75.671875" y="45" x="129.34185791015625" class="er attributeBoxEven"></rect><text style="dominant-baseline: middle; font-size: 10.2px;" transform="translate(134.34185791015625,55.5)" y="0" x="0" id="text-entity-Exercises-082f1a58-a9e5-5e90-ac04-71d5cc62da9c-attr-2-comment" class="er entityLabel"></text><rect height="21" width="46.265625" y="66" x="0" class="er attributeBoxOdd"></rect><text style="dominant-baseline: middle; font-size: 10.2px;" transform="translate(5,76.5)" y="0" x="0" id="text-entity-Exercises-082f1a58-a9e5-5e90-ac04-71d5cc62da9c-attr-3-type" class="er entityLabel">string</text><rect height="21" width="59.28125" y="66" x="46.265625" class="er attributeBoxOdd"></rect><text style="dominant-baseline: middle; font-size: 10.2px;" transform="translate(51.265625,76.5)" y="0" x="0" id="text-entity-Exercises-082f1a58-a9e5-5e90-ac04-71d5cc62da9c-attr-3-name" class="er entityLabel">bodyPart</text><rect height="21" width="23.79498291015625" y="66" x="105.546875" class="er attributeBoxOdd"></rect><text style="dominant-baseline: middle; font-size: 10.2px;" transform="translate(110.546875,76.5)" y="0" x="0" id="text-entity-Exercises-082f1a58-a9e5-5e90-ac04-71d5cc62da9c-attr-3-key" class="er entityLabel"></text><rect height="21" width="75.671875" y="66" x="129.34185791015625" class="er attributeBoxOdd"></rect><text style="dominant-baseline: middle; font-size: 10.2px;" transform="translate(134.34185791015625,76.5)" y="0" x="0" id="text-entity-Exercises-082f1a58-a9e5-5e90-ac04-71d5cc62da9c-attr-3-comment" class="er entityLabel"></text><rect height="21" width="46.265625" y="87" x="0" class="er attributeBoxEven"></rect><text style="dominant-baseline: middle; font-size: 10.2px;" transform="translate(5,97.5)" y="0" x="0" id="text-entity-Exercises-082f1a58-a9e5-5e90-ac04-71d5cc62da9c-attr-4-type" class="er entityLabel">string</text><rect height="21" width="59.28125" y="87" x="46.265625" class="er attributeBoxEven"></rect><text style="dominant-baseline: middle; font-size: 10.2px;" transform="translate(51.265625,97.5)" y="0" x="0" id="text-entity-Exercises-082f1a58-a9e5-5e90-ac04-71d5cc62da9c-attr-4-name" class="er entityLabel">description</text><rect height="21" width="23.79498291015625" y="87" x="105.546875" class="er attributeBoxEven"></rect><text style="dominant-baseline: middle; font-size: 10.2px;" transform="translate(110.546875,97.5)" y="0" x="0" id="text-entity-Exercises-082f1a58-a9e5-5e90-ac04-71d5cc62da9c-attr-4-key" class="er entityLabel"></text><rect height="21" width="75.671875" y="87" x="129.34185791015625" class="er attributeBoxEven"></rect><text style="dominant-baseline: middle; font-size: 10.2px;" transform="translate(134.34185791015625,97.5)" y="0" x="0" id="text-entity-Exercises-082f1a58-a9e5-5e90-ac04-71d5cc62da9c-attr-4-comment" class="er entityLabel"></text><rect height="21" width="46.265625" y="108" x="0" class="er attributeBoxOdd"></rect><text style="dominant-baseline: middle; font-size: 10.2px;" transform="translate(5,118.5)" y="0" x="0" id="text-entity-Exercises-082f1a58-a9e5-5e90-ac04-71d5cc62da9c-attr-5-type" class="er entityLabel">boolean</text><rect height="21" width="59.28125" y="108" x="46.265625" class="er attributeBoxOdd"></rect><text style="dominant-baseline: middle; font-size: 10.2px;" transform="translate(51.265625,118.5)" y="0" x="0" id="text-entity-Exercises-082f1a58-a9e5-5e90-ac04-71d5cc62da9c-attr-5-name" class="er entityLabel">isCustom</text><rect height="21" width="23.79498291015625" y="108" x="105.546875" class="er attributeBoxOdd"></rect><text style="dominant-baseline: middle; font-size: 10.2px;" transform="translate(110.546875,118.5)" y="0" x="0" id="text-entity-Exercises-082f1a58-a9e5-5e90-ac04-71d5cc62da9c-attr-5-key" class="er entityLabel"></text><rect height="21" width="75.671875" y="108" x="129.34185791015625" class="er attributeBoxOdd"></rect><text style="dominant-baseline: middle; font-size: 10.2px;" transform="translate(134.34185791015625,118.5)" y="0" x="0" id="text-entity-Exercises-082f1a58-a9e5-5e90-ac04-71d5cc62da9c-attr-5-comment" class="er entityLabel"></text><rect height="21" width="46.265625" y="129" x="0" class="er attributeBoxEven"></rect><text style="dominant-baseline: middle; font-size: 10.2px;" transform="translate(5,139.5)" y="0" x="0" id="text-entity-Exercises-082f1a58-a9e5-5e90-ac04-71d5cc62da9c-attr-6-type" class="er entityLabel">string</text><rect height="21" width="59.28125" y="129" x="46.265625" class="er attributeBoxEven"></rect><text style="dominant-baseline: middle; font-size: 10.2px;" transform="translate(51.265625,139.5)" y="0" x="0" id="text-entity-Exercises-082f1a58-a9e5-5e90-ac04-71d5cc62da9c-attr-6-name" class="er entityLabel">userId</text><rect height="21" width="23.79498291015625" y="129" x="105.546875" class="er attributeBoxEven"></rect><text style="dominant-baseline: middle; font-size: 10.2px;" transform="translate(110.546875,139.5)" y="0" x="0" id="text-entity-Exercises-082f1a58-a9e5-5e90-ac04-71d5cc62da9c-attr-6-key" class="er entityLabel">FK</text><rect height="21" width="75.671875" y="129" x="129.34185791015625" class="er attributeBoxEven"></rect><text style="dominant-baseline: middle; font-size: 10.2px;" transform="translate(134.34185791015625,139.5)" y="0" x="0" id="text-entity-Exercises-082f1a58-a9e5-5e90-ac04-71d5cc62da9c-attr-6-comment" class="er entityLabel">null for system</text></g><g transform="translate(1241.1266632080078,51.5 )" id="entity-MealFoods-8390d783-cb3f-557c-92b4-ec355a0de858"><rect height="87" width="109.52865600585938" y="0" x="0" class="er entityBox"></rect><text style="dominant-baseline: middle; text-anchor: middle; font-size: 12px;" transform="translate(54.76432800292969,12)" y="0" x="0" id="text-entity-MealFoods-8390d783-cb3f-557c-92b4-ec355a0de858" class="er entityLabel">MealFoods</text><rect height="21" width="45.14947509765625" y="24" x="0" class="er attributeBoxOdd"></rect><text style="dominant-baseline: middle; font-size: 10.2px;" transform="translate(5,34.5)" y="0" x="0" id="text-entity-MealFoods-8390d783-cb3f-557c-92b4-ec355a0de858-attr-1-type" class="er entityLabel">string</text><rect height="21" width="41.15625" y="24" x="45.14947509765625" class="er attributeBoxOdd"></rect><text style="dominant-baseline: middle; font-size: 10.2px;" transform="translate(50.14947509765625,34.5)" y="0" x="0" id="text-entity-MealFoods-8390d783-cb3f-557c-92b4-ec355a0de858-attr-1-name" class="er entityLabel">mealId</text><rect height="21" width="23.222930908203125" y="24" x="86.30572509765625" class="er attributeBoxOdd"></rect><text style="dominant-baseline: middle; font-size: 10.2px;" transform="translate(91.30572509765625,34.5)" y="0" x="0" id="text-entity-MealFoods-8390d783-cb3f-557c-92b4-ec355a0de858-attr-1-key" class="er entityLabel">FK</text><rect height="21" width="45.14947509765625" y="45" x="0" class="er attributeBoxEven"></rect><text style="dominant-baseline: middle; font-size: 10.2px;" transform="translate(5,55.5)" y="0" x="0" id="text-entity-MealFoods-8390d783-cb3f-557c-92b4-ec355a0de858-attr-2-type" class="er entityLabel">string</text><rect height="21" width="41.15625" y="45" x="45.14947509765625" class="er attributeBoxEven"></rect><text style="dominant-baseline: middle; font-size: 10.2px;" transform="translate(50.14947509765625,55.5)" y="0" x="0" id="text-entity-MealFoods-8390d783-cb3f-557c-92b4-ec355a0de858-attr-2-name" class="er entityLabel">foodId</text><rect height="21" width="23.222930908203125" y="45" x="86.30572509765625" class="er attributeBoxEven"></rect><text style="dominant-baseline: middle; font-size: 10.2px;" transform="translate(91.30572509765625,55.5)" y="0" x="0" id="text-entity-MealFoods-8390d783-cb3f-557c-92b4-ec355a0de858-attr-2-key" class="er entityLabel">FK</text><rect height="21" width="45.14947509765625" y="66" x="0" class="er attributeBoxOdd"></rect><text style="dominant-baseline: middle; font-size: 10.2px;" transform="translate(5,76.5)" y="0" x="0" id="text-entity-MealFoods-8390d783-cb3f-557c-92b4-ec355a0de858-attr-3-type" class="er entityLabel">number</text><rect height="21" width="41.15625" y="66" x="45.14947509765625" class="er attributeBoxOdd"></rect><text style="dominant-baseline: middle; font-size: 10.2px;" transform="translate(50.14947509765625,76.5)" y="0" x="0" id="text-entity-MealFoods-8390d783-cb3f-557c-92b4-ec355a0de858-attr-3-name" class="er entityLabel">portion</text><rect height="21" width="23.222930908203125" y="66" x="86.30572509765625" class="er attributeBoxOdd"></rect><text style="dominant-baseline: middle; font-size: 10.2px;" transform="translate(91.30572509765625,76.5)" y="0" x="0" id="text-entity-MealFoods-8390d783-cb3f-557c-92b4-ec355a0de858-attr-3-key" class="er entityLabel"></text></g><rect height="14" width="22.015625" y="194.4760284423828" x="115.74307250976562" class="er relationshipLabelBox"></rect><text style="text-anchor: middle; dominant-baseline: middle; font-size: 12px;" y="201.4760284423828" x="126.75088500976562" id="rel17" class="er relationshipLabel">logs</text><rect height="14" width="32.015625" y="233.9836883544922" x="287.9973449707031" class="er relationshipLabelBox"></rect><text style="text-anchor: middle; dominant-baseline: middle; font-size: 12px;" y="240.9836883544922" x="304.0051574707031" id="rel18" class="er relationshipLabel">tracks</text><rect height="14" width="39.359375" y="182.0490264892578" x="458.2242736816406" class="er relationshipLabelBox"></rect><text style="text-anchor: middle; dominant-baseline: middle; font-size: 12px;" y="189.0490264892578" x="477.9039611816406" id="rel19" class="er relationshipLabel">creates</text><rect height="14" width="39.359375" y="174.34458923339844" x="592.8562622070312" class="er relationshipLabelBox"></rect><text style="text-anchor: middle; dominant-baseline: middle; font-size: 12px;" y="181.34458923339844" x="612.5359497070312" id="rel20" class="er relationshipLabel">creates</text></svg>